<svg xmlns="http://www.w3.org/2000/svg" width="182.176" height="56.097" viewBox="0 0 182.176 56.097">
  <g id="Group_28" data-name="Group 28" transform="translate(0.5 0.5)">
    <path id="Path_56" data-name="Path 56" d="M174.173,808.255H7a7,7,0,0,1-7-7V760.161a7,7,0,0,1,7-7h167.17a7,7,0,0,1,7,7v41.091a7,7,0,0,1-7,7" transform="translate(0 -753.158)" stroke="#fff" stroke-width="1"/>
    <path id="Path_57" data-name="Path 57" d="M126.117,907.071c-2.939,5.1-1.071,12.84,2.179,17.533,1.622,2.346,3.265,4.453,5.515,4.453.042,0,.085,0,.128,0a6.8,6.8,0,0,0,2.559-.682,7.007,7.007,0,0,1,3.032-.719,6.594,6.594,0,0,1,2.885.695,6.113,6.113,0,0,0,2.765.663c2.534-.047,4.09-2.32,5.463-4.325a19.164,19.164,0,0,0,2.394-4.9l.01-.031a.285.285,0,0,0-.152-.349l-.02-.009a7.263,7.263,0,0,1-4.4-6.652,7.477,7.477,0,0,1,3.533-6.251l.028-.018a.284.284,0,0,0,.081-.4,8.221,8.221,0,0,0-6.467-3.512,5.627,5.627,0,0,0-.564-.028,11.274,11.274,0,0,0-4.059,1.014,6.512,6.512,0,0,1-1.944.581,6.361,6.361,0,0,1-2.011-.588,9.75,9.75,0,0,0-3.545-.9h-.09a8.692,8.692,0,0,0-7.316,4.429" transform="translate(-109.65 -884.559)" fill="#fff"/>
    <path id="Path_58" data-name="Path 58" d="M246.743,834.036a7.936,7.936,0,0,0-5.24,2.688,7.435,7.435,0,0,0-1.883,5.514.286.286,0,0,0,.261.247c.121.009.245.014.368.014a6.715,6.715,0,0,0,4.946-2.537,7.84,7.84,0,0,0,1.843-5.673.286.286,0,0,0-.3-.254" transform="translate(-210.744 -824.303)" fill="#fff"/>
    <path id="Path_59" data-name="Path 59" d="M470.93,857.6h3.407a4.985,4.985,0,0,1,2.38.553,4.045,4.045,0,0,1,1.617,1.531,4.552,4.552,0,0,1,0,4.44,4.046,4.046,0,0,1-1.617,1.531,4.987,4.987,0,0,1-2.38.554H470.93Zm3.358,8.044a4.492,4.492,0,0,0,2.1-.474,3.387,3.387,0,0,0,1.4-1.322,4.084,4.084,0,0,0,0-3.887,3.388,3.388,0,0,0-1.4-1.322,4.5,4.5,0,0,0-2.1-.474h-2.731v7.479Z" transform="translate(-414.258 -845.035)" fill="#fff"/>
    <path id="Path_60" data-name="Path 60" d="M549.461,881.489a3.012,3.012,0,0,1-1.15-1.162,3.58,3.58,0,0,1,0-3.358,3.014,3.014,0,0,1,1.15-1.162,3.433,3.433,0,0,1,3.284,0,3.016,3.016,0,0,1,1.15,1.162,3.579,3.579,0,0,1,0,3.358,3.013,3.013,0,0,1-1.15,1.162,3.434,3.434,0,0,1-3.284,0m2.964-.48a2.473,2.473,0,0,0,.923-.959,3.077,3.077,0,0,0,0-2.8,2.475,2.475,0,0,0-.923-.959,2.711,2.711,0,0,0-2.644,0,2.473,2.473,0,0,0-.922.959,3.074,3.074,0,0,0,0,2.8,2.47,2.47,0,0,0,.922.959,2.711,2.711,0,0,0,2.644,0" transform="translate(-481.959 -860.68)" fill="#fff"/>
    <path id="Path_61" data-name="Path 61" d="M616.1,875.8l-2.435,6.421h-.578l-2.165-5.572-2.177,5.572h-.566l-2.435-6.421h.59l2.14,5.732,2.189-5.732h.529l2.177,5.72,2.165-5.72Z" transform="translate(-532.848 -861.038)" fill="#fff"/>
    <path id="Path_62" data-name="Path 62" d="M708.7,876.089a2.731,2.731,0,0,1,.7,2.017v3.751h-.615v-3.7a2.28,2.28,0,0,0-.547-1.648,2.032,2.032,0,0,0-1.531-.566,2.361,2.361,0,0,0-1.784.676,2.513,2.513,0,0,0-.652,1.82v3.419h-.615v-6.421h.59v1.39a2.443,2.443,0,0,1,.99-1.058,3.051,3.051,0,0,1,1.556-.381,2.577,2.577,0,0,1,1.907.7" transform="translate(-618.982 -860.68)" fill="#fff"/>
    <rect id="Rectangle_78" data-name="Rectangle 78" width="0.615" height="9.127" transform="translate(92.957 12.052)" fill="#fff"/>
    <path id="Path_63" data-name="Path 63" d="M794.864,881.489a3.011,3.011,0,0,1-1.15-1.162,3.579,3.579,0,0,1,0-3.358,3.014,3.014,0,0,1,1.15-1.162,3.433,3.433,0,0,1,3.284,0,3.016,3.016,0,0,1,1.15,1.162,3.58,3.58,0,0,1,0,3.358,3.013,3.013,0,0,1-1.15,1.162,3.433,3.433,0,0,1-3.284,0m2.964-.48a2.473,2.473,0,0,0,.922-.959,3.077,3.077,0,0,0,0-2.8,2.476,2.476,0,0,0-.922-.959,2.711,2.711,0,0,0-2.645,0,2.472,2.472,0,0,0-.922.959,3.076,3.076,0,0,0,0,2.8,2.469,2.469,0,0,0,.922.959,2.711,2.711,0,0,0,2.645,0" transform="translate(-697.83 -860.68)" fill="#fff"/>
    <path id="Path_64" data-name="Path 64" d="M862.061,876a2.357,2.357,0,0,1,.64,1.79v4.071h-.59v-1.144a2.135,2.135,0,0,1-.9.879,2.975,2.975,0,0,1-1.414.314,2.606,2.606,0,0,1-1.691-.5,1.744,1.744,0,0,1-.049-2.626,2.748,2.748,0,0,1,1.827-.5h2.2v-.516a1.809,1.809,0,0,0-.486-1.365,1.972,1.972,0,0,0-1.421-.468,3.424,3.424,0,0,0-1.224.221,3.074,3.074,0,0,0-.99.59l-.307-.443a3.421,3.421,0,0,1,1.156-.67,4.2,4.2,0,0,1,1.415-.24,2.556,2.556,0,0,1,1.833.609m-.818,5.037a2.246,2.246,0,0,0,.843-1.07v-1.205H859.9a2.18,2.18,0,0,0-1.372.344,1.154,1.154,0,0,0-.424.947,1.185,1.185,0,0,0,.467.99,2.1,2.1,0,0,0,1.316.363,2.415,2.415,0,0,0,1.359-.369" transform="translate(-754.294 -860.679)" fill="#fff"/>
    <path id="Path_65" data-name="Path 65" d="M922.559,853.31v9.127h-.6v-1.513a2.754,2.754,0,0,1-1.07,1.156,3.018,3.018,0,0,1-1.562.406,3.19,3.19,0,0,1-1.624-.418,2.992,2.992,0,0,1-1.138-1.156,3.4,3.4,0,0,1-.412-1.685,3.433,3.433,0,0,1,.412-1.691,2.941,2.941,0,0,1,1.138-1.156,3.23,3.23,0,0,1,1.624-.412,2.961,2.961,0,0,1,1.544.406,2.889,2.889,0,0,1,1.076,1.132V853.31Zm-1.876,8.278a2.475,2.475,0,0,0,.922-.959,3.077,3.077,0,0,0,0-2.8,2.477,2.477,0,0,0-.922-.959,2.71,2.71,0,0,0-2.645,0,2.472,2.472,0,0,0-.922.959,3.076,3.076,0,0,0,0,2.8,2.47,2.47,0,0,0,.922.959,2.711,2.711,0,0,0,2.645,0" transform="translate(-805.901 -841.258)" fill="#fff"/>
    <path id="Path_66" data-name="Path 66" d="M1012.977,881.489a3.01,3.01,0,0,1-1.15-1.162,3.579,3.579,0,0,1,0-3.358,3.013,3.013,0,0,1,1.15-1.162,3.433,3.433,0,0,1,3.284,0,3.015,3.015,0,0,1,1.15,1.162,3.58,3.58,0,0,1,0,3.358,3.012,3.012,0,0,1-1.15,1.162,3.433,3.433,0,0,1-3.284,0m2.964-.48a2.475,2.475,0,0,0,.923-.959,3.079,3.079,0,0,0,0-2.8,2.478,2.478,0,0,0-.923-.959,2.711,2.711,0,0,0-2.644,0,2.472,2.472,0,0,0-.923.959,3.076,3.076,0,0,0,0,2.8,2.469,2.469,0,0,0,.923.959,2.711,2.711,0,0,0,2.644,0" transform="translate(-889.695 -860.68)" fill="#fff"/>
    <path id="Path_67" data-name="Path 67" d="M1085.648,876.089a2.73,2.73,0,0,1,.7,2.017v3.751h-.615v-3.7a2.279,2.279,0,0,0-.547-1.648,2.032,2.032,0,0,0-1.531-.566,2.361,2.361,0,0,0-1.783.676,2.512,2.512,0,0,0-.652,1.82v3.419h-.615v-6.421h.59v1.39a2.443,2.443,0,0,1,.99-1.058,3.051,3.051,0,0,1,1.556-.381,2.576,2.576,0,0,1,1.906.7" transform="translate(-950.564 -860.68)" fill="#fff"/>
    <path id="Path_68" data-name="Path 68" d="M1171.11,871.561a1.544,1.544,0,0,1-.584.338,2.3,2.3,0,0,1-.732.117,1.732,1.732,0,0,1-1.292-.461,1.751,1.751,0,0,1-.455-1.285v-4.194h-1.181v-.529h1.181v-1.4h.615v1.4h2.042v.529h-2.042v4.133a1.356,1.356,0,0,0,.3.953,1.155,1.155,0,0,0,.892.326,1.428,1.428,0,0,0,1-.357Z" transform="translate(-1026.445 -850.788)" fill="#fff"/>
    <path id="Path_69" data-name="Path 69" d="M1221.38,856.668a2.731,2.731,0,0,1,.7,2.017v3.751h-.615v-3.7a2.28,2.28,0,0,0-.547-1.648,2.032,2.032,0,0,0-1.531-.566,2.361,2.361,0,0,0-1.783.677,2.512,2.512,0,0,0-.652,1.82v3.419h-.615V853.31h.615v4.047a2.357,2.357,0,0,1,.984-1.027,3.112,3.112,0,0,1,1.538-.363,2.576,2.576,0,0,1,1.906.7" transform="translate(-1069.962 -841.258)" fill="#fff"/>
    <path id="Path_70" data-name="Path 70" d="M1285.523,878.8H1280a2.68,2.68,0,0,0,.381,1.335,2.441,2.441,0,0,0,.966.9,2.9,2.9,0,0,0,1.371.32,2.936,2.936,0,0,0,1.162-.228,2.266,2.266,0,0,0,.892-.67l.356.406a2.737,2.737,0,0,1-1.052.775,3.662,3.662,0,0,1-3.081-.148,3.033,3.033,0,0,1-1.175-1.156,3.319,3.319,0,0,1-.424-1.685,3.492,3.492,0,0,1,.4-1.679,2.95,2.95,0,0,1,1.1-1.162,3.182,3.182,0,0,1,3.143-.006,2.931,2.931,0,0,1,1.094,1.15,3.456,3.456,0,0,1,.4,1.673Zm-4.268-2.565a2.3,2.3,0,0,0-.867.849,2.761,2.761,0,0,0-.375,1.236h4.92a2.578,2.578,0,0,0-.369-1.23,2.388,2.388,0,0,0-2.091-1.156,2.46,2.46,0,0,0-1.217.3" transform="translate(-1125.434 -860.68)" fill="#fff"/>
    <path id="Path_71" data-name="Path 71" d="M461.634,1004.656h-7.357l-1.45,3.405H450.01l6.621-14.714h2.69l6.642,14.714h-2.859Zm-.9-2.144-2.775-6.432-2.754,6.432Z" transform="translate(-395.855 -964.444)" fill="#fff"/>
    <path id="Path_72" data-name="Path 72" d="M605.185,1022.009a5.157,5.157,0,0,1,2.028,2.018,6.528,6.528,0,0,1,0,6.022,5.134,5.134,0,0,1-2.028,2.029,5.958,5.958,0,0,1-2.932.715,4.532,4.532,0,0,1-3.594-1.513v5.444h-2.627v-15.3h2.5v1.471a4.066,4.066,0,0,1,1.608-1.2,5.433,5.433,0,0,1,2.112-.4,5.961,5.961,0,0,1,2.932.715m-.841,7.567a3.925,3.925,0,0,0,0-5.087,3.177,3.177,0,0,0-2.386-.967,3.382,3.382,0,0,0-1.7.431,3.118,3.118,0,0,0-1.2,1.23,4.1,4.1,0,0,0,0,3.7,3.111,3.111,0,0,0,1.2,1.23,3.378,3.378,0,0,0,1.7.431,3.176,3.176,0,0,0,2.386-.967" transform="translate(-524.304 -989.027)" fill="#fff"/>
    <path id="Path_73" data-name="Path 73" d="M725.005,1022.009a5.156,5.156,0,0,1,2.028,2.018,6.528,6.528,0,0,1,0,6.022,5.133,5.133,0,0,1-2.028,2.029,5.958,5.958,0,0,1-2.932.715,4.532,4.532,0,0,1-3.594-1.513v5.444h-2.627v-15.3h2.5v1.471a4.064,4.064,0,0,1,1.608-1.2,5.433,5.433,0,0,1,2.112-.4,5.961,5.961,0,0,1,2.932.715m-.841,7.567a3.925,3.925,0,0,0,0-5.087,3.177,3.177,0,0,0-2.386-.967,3.383,3.383,0,0,0-1.7.431,3.118,3.118,0,0,0-1.2,1.23,4.1,4.1,0,0,0,0,3.7,3.112,3.112,0,0,0,1.2,1.23,3.379,3.379,0,0,0,1.7.431,3.176,3.176,0,0,0,2.386-.967" transform="translate(-629.705 -989.027)" fill="#fff"/>
    <path id="Path_74" data-name="Path 74" d="M878.18,1006.252a6.857,6.857,0,0,1-2.512-1.282l.946-2.123a7.436,7.436,0,0,0,2.218,1.167,8.06,8.06,0,0,0,2.638.452,4.557,4.557,0,0,0,2.449-.526,1.592,1.592,0,0,0,.809-1.387,1.344,1.344,0,0,0-.452-1.041,3.179,3.179,0,0,0-1.146-.641q-.694-.231-1.892-.525a21.973,21.973,0,0,1-2.722-.8,4.474,4.474,0,0,1-1.787-1.251,3.368,3.368,0,0,1-.746-2.3,3.926,3.926,0,0,1,.662-2.217,4.479,4.479,0,0,1,2-1.587,8.091,8.091,0,0,1,3.269-.589,10.571,10.571,0,0,1,2.649.336,7.326,7.326,0,0,1,2.249.967l-.862,2.123a8.53,8.53,0,0,0-2.018-.862,7.555,7.555,0,0,0-2.039-.294,4.259,4.259,0,0,0-2.407.547,1.686,1.686,0,0,0-.788,1.45,1.311,1.311,0,0,0,.452,1.03,3.261,3.261,0,0,0,1.146.631q.694.231,1.892.526a19.907,19.907,0,0,1,2.691.788,4.613,4.613,0,0,1,1.8,1.251,3.3,3.3,0,0,1,.746,2.27,3.877,3.877,0,0,1-.662,2.207,4.5,4.5,0,0,1-2.008,1.576,8.172,8.172,0,0,1-3.279.589,11.23,11.23,0,0,1-3.29-.483" transform="translate(-770.289 -962.907)" fill="#fff"/>
    <path id="Path_75" data-name="Path 75" d="M989.581,1014.827a3.094,3.094,0,0,1-1.124.568,5.075,5.075,0,0,1-1.4.189,3.965,3.965,0,0,1-2.859-.967,3.72,3.72,0,0,1-1.009-2.817v-5.4h-1.849v-2.1h1.849v-2.564h2.628v2.564h3.006v2.1h-3.006v5.339a1.775,1.775,0,0,0,.4,1.251,1.5,1.5,0,0,0,1.156.431,2.308,2.308,0,0,0,1.471-.462Z" transform="translate(-863.246 -971.818)" fill="#fff"/>
    <path id="Path_76" data-name="Path 76" d="M1059.873,1032.056a5.363,5.363,0,0,1-2.134-2.05,6.129,6.129,0,0,1,0-5.938,5.387,5.387,0,0,1,2.134-2.039,6.812,6.812,0,0,1,6.159,0,5.391,5.391,0,0,1,2.133,2.039,6.129,6.129,0,0,1,0,5.938,5.366,5.366,0,0,1-2.133,2.05,6.813,6.813,0,0,1-6.159,0m5.465-2.48a3.893,3.893,0,0,0,0-5.087,3.212,3.212,0,0,0-2.4-.967,3.177,3.177,0,0,0-2.386.967,3.925,3.925,0,0,0,0,5.087,3.176,3.176,0,0,0,2.386.967,3.211,3.211,0,0,0,2.4-.967" transform="translate(-929.775 -989.027)" fill="#fff"/>
    <path id="Path_77" data-name="Path 77" d="M1183.812,1021.294v2.5a3.331,3.331,0,0,0-.609-.063,3.173,3.173,0,0,0-2.4.893,3.561,3.561,0,0,0-.862,2.575v5.444h-2.627V1021.42h2.5v1.64q1.135-1.766,3.994-1.766" transform="translate(-1035.638 -989.027)" fill="#fff"/>
    <path id="Path_78" data-name="Path 78" d="M1252.68,1027.873h-8.807a3.053,3.053,0,0,0,1.209,1.966,3.963,3.963,0,0,0,2.428.725,4.091,4.091,0,0,0,3.048-1.219l1.408,1.618a4.744,4.744,0,0,1-1.913,1.366,7.581,7.581,0,0,1-5.865-.273,5.3,5.3,0,0,1-2.176-2.05,5.785,5.785,0,0,1-.767-2.974,5.872,5.872,0,0,1,.747-2.953,5.292,5.292,0,0,1,2.07-2.049,6.041,6.041,0,0,1,2.985-.736,5.889,5.889,0,0,1,2.932.725,5.139,5.139,0,0,1,2.018,2.039,6.186,6.186,0,0,1,.725,3.037q0,.274-.042.778m-7.767-3.731a3.138,3.138,0,0,0-1.061,1.986h6.369a3.1,3.1,0,0,0-1.03-1.976,3.133,3.133,0,0,0-2.144-.757,3.171,3.171,0,0,0-2.134.746" transform="translate(-1091.873 -989.027)" fill="#fff"/>
  </g>
</svg>
