<svg xmlns="http://www.w3.org/2000/svg" width="182.176" height="56.097" viewBox="0 0 182.176 56.097">
  <g id="Group_27" data-name="Group 27" transform="translate(0.5 0.5)">
    <path id="Path_79" data-name="Path 79" d="M507.171,55.093H340a7,7,0,0,1-7-7V7a7,7,0,0,1,7-7h167.17a7,7,0,0,1,7,7V48.09a7,7,0,0,1-7,7" transform="translate(-332.998 0.004)" stroke="#fff" stroke-width="1"/>
    <path id="Path_80" data-name="Path 80" d="M747.112,223.7h2.527v5.731a8.027,8.027,0,0,1-2.588,1.356,9.935,9.935,0,0,1-3.04.473,8.2,8.2,0,0,1-3.965-.955,7.094,7.094,0,0,1-2.773-2.64,7.678,7.678,0,0,1,0-7.6,7.079,7.079,0,0,1,2.784-2.64,8.3,8.3,0,0,1,4-.955,8.725,8.725,0,0,1,3.287.6,6.452,6.452,0,0,1,2.485,1.746l-1.684,1.643a5.4,5.4,0,0,0-3.964-1.643,5.6,5.6,0,0,0-2.7.637,4.641,4.641,0,0,0-1.849,1.787,5.14,5.14,0,0,0-.668,2.629,5.059,5.059,0,0,0,.668,2.588,4.781,4.781,0,0,0,1.849,1.808,5.414,5.414,0,0,0,2.681.657,5.785,5.785,0,0,0,2.958-.74Z" transform="translate(-687.736 -190.421)" fill="#fff"/>
    <path id="Path_81" data-name="Path 81" d="M869.855,256.01a5.24,5.24,0,0,1-2.085-2,5.99,5.99,0,0,1,0-5.8,5.264,5.264,0,0,1,2.085-1.992,6.657,6.657,0,0,1,6.019,0,5.268,5.268,0,0,1,2.085,1.992,5.989,5.989,0,0,1,0,5.8,5.243,5.243,0,0,1-2.085,2,6.658,6.658,0,0,1-6.019,0m5.341-2.424a3.8,3.8,0,0,0,0-4.971,3.138,3.138,0,0,0-2.342-.945,3.1,3.1,0,0,0-2.331.945,3.836,3.836,0,0,0,0,4.971,3.1,3.1,0,0,0,2.331.945,3.137,3.137,0,0,0,2.342-.945" transform="translate(-802.755 -215.948)" fill="#fff"/>
    <path id="Path_82" data-name="Path 82" d="M979.955,256.01a5.24,5.24,0,0,1-2.085-2,5.989,5.989,0,0,1,0-5.8,5.264,5.264,0,0,1,2.085-1.992,6.657,6.657,0,0,1,6.019,0,5.266,5.266,0,0,1,2.085,1.992,5.99,5.99,0,0,1,0,5.8,5.242,5.242,0,0,1-2.085,2,6.658,6.658,0,0,1-6.019,0m5.341-2.424a3.8,3.8,0,0,0,0-4.971,3.138,3.138,0,0,0-2.342-.945,3.1,3.1,0,0,0-2.332.945,3.836,3.836,0,0,0,0,4.971,3.1,3.1,0,0,0,2.332.945,3.137,3.137,0,0,0,2.342-.945" transform="translate(-899.606 -215.948)" fill="#fff"/>
    <path id="Path_83" data-name="Path 83" d="M1099.011,245.614v9.306q0,5.793-5.916,5.793a10.979,10.979,0,0,1-3-.4,6.365,6.365,0,0,1-2.342-1.161l1.151-1.931a5.494,5.494,0,0,0,1.818.955,7.131,7.131,0,0,0,2.229.359,3.68,3.68,0,0,0,2.65-.822,3.359,3.359,0,0,0,.842-2.506v-.575a4.22,4.22,0,0,1-1.6,1.089,5.647,5.647,0,0,1-2.075.37,5.952,5.952,0,0,1-2.825-.668,5.012,5.012,0,0,1-1.992-1.88,5.617,5.617,0,0,1,0-5.536,4.966,4.966,0,0,1,1.992-1.859,6.029,6.029,0,0,1,2.825-.657,5.792,5.792,0,0,1,2.167.39,4,4,0,0,1,1.633,1.191v-1.458Zm-3.462,7.426a2.964,2.964,0,0,0,.935-2.27,2.908,2.908,0,0,0-.935-2.239,3.779,3.779,0,0,0-4.807,0,2.907,2.907,0,0,0-.935,2.239,2.963,2.963,0,0,0,.935,2.27,3.745,3.745,0,0,0,4.807,0" transform="translate(-996.456 -215.947)" fill="#fff"/>
    <rect id="Rectangle_79" data-name="Rectangle 79" width="2.568" height="15.242" transform="translate(105.924 25.394)" fill="#fff"/>
    <path id="Path_84" data-name="Path 84" d="M1266.189,251.922h-8.607a2.982,2.982,0,0,0,1.181,1.921,3.872,3.872,0,0,0,2.372.709,4,4,0,0,0,2.979-1.191l1.376,1.582a4.632,4.632,0,0,1-1.869,1.335,7.407,7.407,0,0,1-5.731-.267,5.175,5.175,0,0,1-2.126-2,5.653,5.653,0,0,1-.75-2.907,5.74,5.74,0,0,1,.729-2.886,5.175,5.175,0,0,1,2.024-2,5.9,5.9,0,0,1,2.917-.719,5.757,5.757,0,0,1,2.866.709,5.021,5.021,0,0,1,1.972,1.993,6.042,6.042,0,0,1,.709,2.968q0,.268-.041.76m-7.59-3.646a3.068,3.068,0,0,0-1.037,1.941h6.224a3.029,3.029,0,0,0-1.007-1.931,3.062,3.062,0,0,0-2.1-.74,3.1,3.1,0,0,0-2.085.729" transform="translate(-1144.058 -215.948)" fill="#fff"/>
    <path id="Path_85" data-name="Path 85" d="M1427.031,218.8a4.735,4.735,0,0,1,2.126,1.767,5.4,5.4,0,0,1,0,5.454,4.712,4.712,0,0,1-2.126,1.777,7.962,7.962,0,0,1-3.256.616h-3.246v4.15h-2.67v-14.38h5.916a7.96,7.96,0,0,1,3.256.616m-.729,6.615a2.928,2.928,0,0,0,0-4.232,4.1,4.1,0,0,0-2.65-.74h-3.123v5.711h3.123a4.1,4.1,0,0,0,2.65-.74" transform="translate(-1287.306 -191.923)" fill="#fff"/>
    <rect id="Rectangle_80" data-name="Rectangle 80" width="2.568" height="15.242" transform="translate(145.22 25.394)" fill="#fff"/>
    <path id="Path_86" data-name="Path 86" d="M1591.261,246.653a4.487,4.487,0,0,1,1.284,3.5v6.43h-2.424v-1.335a2.986,2.986,0,0,1-1.346,1.1,5.262,5.262,0,0,1-2.105.38,5.162,5.162,0,0,1-2.157-.421,3.33,3.33,0,0,1-1.428-1.171,2.968,2.968,0,0,1-.5-1.695,2.9,2.9,0,0,1,1.1-2.373,5.458,5.458,0,0,1,3.461-.894h2.835v-.164a2.248,2.248,0,0,0-.688-1.767,2.978,2.978,0,0,0-2.044-.616,5.9,5.9,0,0,0-1.818.287,4.477,4.477,0,0,0-1.51.8l-1.006-1.869a6.234,6.234,0,0,1,2.075-1.007,9.232,9.232,0,0,1,2.568-.349,5.35,5.35,0,0,1,3.708,1.161m-2.342,7.765a2.4,2.4,0,0,0,1.058-1.263v-1.274h-2.65q-2.219,0-2.219,1.458a1.309,1.309,0,0,0,.555,1.109,2.541,2.541,0,0,0,1.541.411,3.314,3.314,0,0,0,1.715-.442" transform="translate(-1432.206 -215.948)" fill="#fff"/>
    <path id="Path_87" data-name="Path 87" d="M1686.382,246.516l-5.136,11.853a5.52,5.52,0,0,1-1.746,2.516,4.184,4.184,0,0,1-2.486.729,5.111,5.111,0,0,1-1.623-.267,3.592,3.592,0,0,1-1.315-.74l1.027-1.89a2.793,2.793,0,0,0,.873.555,2.672,2.672,0,0,0,1.017.205,1.75,1.75,0,0,0,1.12-.349,3.092,3.092,0,0,0,.811-1.171l.185-.431-4.786-11.011h2.671l3.451,8.114,3.472-8.114Z" transform="translate(-1512.69 -216.85)" fill="#fff"/>
    <path id="Path_88" data-name="Path 88" d="M603.3,193.955l-6.9-3.983-5.677,5.488,5.188,5.016,7.391-4.267a1.3,1.3,0,0,0,0-2.254" transform="translate(-559.709 -167.11)" fill="#ffd109"/>
    <path id="Path_89" data-name="Path 89" d="M450.952,89.939l-7.6-4.385-16.647-8.531,18.8,18.176Z" transform="translate(-415.431 -67.753)" fill="#06ef79"/>
    <path id="Path_90" data-name="Path 90" d="M429,261l16.4-9.034,7.079-4.086-4.952-4.788Z" transform="translate(-417.451 -213.838)" fill="#f93646"/>
    <path id="Path_91" data-name="Path 91" d="M417.348,83.134l-.018,36.707,19-18.362Z" transform="translate(-407.181 -73.129)" fill="#05d5fb"/>
    <path id="Path_92" data-name="Path 92" d="M744.39,86.445a3.55,3.55,0,0,1-1.622-.379,4.288,4.288,0,0,1-1.311-1.019,4.815,4.815,0,0,1-.87-1.441,4.547,4.547,0,0,1-.311-1.659,4.676,4.676,0,0,1,1.174-3.119,4.027,4.027,0,0,1,1.3-.975,3.786,3.786,0,0,1,1.634-.354,3.845,3.845,0,0,1,2.113.534,3.436,3.436,0,0,1,1.255,1.392l-.857.6a2.583,2.583,0,0,0-1.056-1.143,3,3,0,0,0-1.479-.373,2.589,2.589,0,0,0-1.218.286,2.918,2.918,0,0,0-.938.777,3.556,3.556,0,0,0-.6,1.112,4.1,4.1,0,0,0-.205,1.292,3.849,3.849,0,0,0,.23,1.336,3.44,3.44,0,0,0,.652,1.106,3.134,3.134,0,0,0,.982.752,2.706,2.706,0,0,0,1.205.273,2.891,2.891,0,0,0,1.441-.385,4.365,4.365,0,0,0,1.292-1.18v1.156a3.588,3.588,0,0,1-2.821,1.417m2.684-3.616h-1.9v-.845h2.846v4.4h-.944Z" transform="translate(-691.265 -68.171)" fill="#fff"/>
    <path id="Path_93" data-name="Path 93" d="M824.742,85.844v.994h-5.99V78.015h5.878v.994H819.87v2.858h4.138V82.8H819.87v3.045Z" transform="translate(-760.296 -68.626)" fill="#fff"/>
    <path id="Path_94" data-name="Path 94" d="M881.409,79.008h-3.045v7.829h-1.118V79.008H874.2v-.994h7.207Z" transform="translate(-809.073 -68.625)" fill="#fff"/>
    <rect id="Rectangle_81" data-name="Rectangle 81" width="1.118" height="8.823" transform="translate(76.375 9.389)" fill="#fff"/>
    <path id="Path_95" data-name="Path 95" d="M995.616,80.077v6.76H994.5V78.015h.944l5.393,6.9V78.027h1.118v8.81h-1.019Z" transform="translate(-914.893 -68.626)" fill="#fff"/>
    <path id="Path_96" data-name="Path 96" d="M1099.531,86.446a3.777,3.777,0,0,1-1.69-.373,4.114,4.114,0,0,1-1.311-1.013,4.748,4.748,0,0,1-1.149-3.088,4.534,4.534,0,0,1,.317-1.684,4.692,4.692,0,0,1,.882-1.429,4.264,4.264,0,0,1,1.323-.994,3.746,3.746,0,0,1,1.653-.367,3.676,3.676,0,0,1,1.69.385,4.168,4.168,0,0,1,1.3,1.031,4.86,4.86,0,0,1,.845,1.441,4.644,4.644,0,0,1-.888,4.741,4.185,4.185,0,0,1-1.324.988,3.8,3.8,0,0,1-1.653.36m-3.02-4.473a3.937,3.937,0,0,0,.218,1.3,3.577,3.577,0,0,0,.615,1.112,2.974,2.974,0,0,0,.957.771,2.688,2.688,0,0,0,1.243.286,2.649,2.649,0,0,0,1.267-.3,2.985,2.985,0,0,0,.951-.8,3.628,3.628,0,0,0,.6-1.118,3.977,3.977,0,0,0,.205-1.255,3.887,3.887,0,0,0-.218-1.292,3.614,3.614,0,0,0-.621-1.112,2.959,2.959,0,0,0-.957-.77,2.673,2.673,0,0,0-1.224-.28,2.7,2.7,0,0,0-1.268.292,2.919,2.919,0,0,0-.951.789,3.753,3.753,0,0,0-.6,1.112,3.854,3.854,0,0,0-.211,1.261" transform="translate(-1003.635 -68.172)" fill="#fff"/>
    <path id="Path_97" data-name="Path 97" d="M1178.486,80.077v6.76h-1.118V78.015h.944l5.393,6.9V78.027h1.118v8.81H1183.8Z" transform="translate(-1075.755 -68.626)" fill="#fff"/>
  </g>
</svg>
